<svg width="43" height="55" viewBox="0 0 43 55" fill="none" xmlns="http://www.w3.org/2000/svg">
<path d="M34.0178 39.521L33.4852 40.899C32.8107 42.6359 31.5253 43.8952 29.7681 44.5408C29.0444 44.8071 28.312 44.9374 27.5854 44.9374C26.5548 44.9374 25.5358 44.6681 24.5747 44.1355L24.4937 44.0892L30.7929 55L32.5878 48.3041C32.773 47.6296 33.462 47.2272 34.1394 47.4096L40.8353 49.2044L34.6287 38.4615C34.3768 38.7655 34.1713 39.1215 34.0178 39.521Z" fill="#08B1F4"/>
<path d="M13.166 44.5408C11.4059 43.8923 10.1206 42.6359 9.44607 40.899L8.91341 39.5181C8.75998 39.1187 8.55444 38.7626 8.30259 38.4586L2.09595 49.2015L8.79183 47.4067C9.46923 47.2243 10.164 47.6267 10.3435 48.3012L12.1383 54.9971L18.4376 44.0892L18.3565 44.1355C16.7151 45.0387 14.9232 45.1777 13.1631 44.5408H13.166Z" fill="#08B1F4"/>
<path d="M42.8559 17.9599C42.6648 16.8425 42.0743 15.9798 41.1016 15.3892L39.8365 14.6221C37.9578 13.4873 36.8519 11.5738 36.7998 9.37365L36.7708 7.88857C36.7506 6.75956 36.299 5.81583 35.4305 5.08921C34.562 4.35681 33.5546 4.076 32.4372 4.2497L30.9666 4.4755C28.7925 4.8142 26.714 4.05574 25.2666 2.39986L24.291 1.28823H24.2881C23.547 0.434233 22.5946 0 21.4627 0C20.3308 0 19.3755 0.431338 18.6315 1.28533L17.6501 2.40276C16.2056 4.05574 14.1241 4.8142 11.9501 4.4755L10.4882 4.2497C9.36783 4.076 8.36041 4.3597 7.49194 5.08921C6.62348 5.81583 6.17477 6.75956 6.15161 7.88857L6.12266 9.37076C6.07345 11.5738 4.9647 13.4902 3.08303 14.6279L1.81796 15.395C0.851066 15.9827 0.260509 16.8483 0.0636569 17.9657C-0.133196 19.0802 0.127344 20.0934 0.833697 20.9735L1.76296 22.1285C3.14092 23.8452 3.52305 26.0222 2.8167 28.1094L2.57932 28.8041L2.57063 28.8302L2.33904 29.5105C1.97718 30.5845 2.08139 31.6238 2.643 32.6022C3.2104 33.5807 4.0615 34.1915 5.17314 34.4144L6.62637 34.7039C8.78596 35.1295 10.4795 36.5567 11.2756 38.6091L11.8082 39.99C12.2164 41.0408 12.9662 41.7732 14.0315 42.167C15.0939 42.5491 16.139 42.4709 17.1261 41.9209L18.4288 41.2087C19.3928 40.6819 20.4292 40.4184 21.4598 40.4184C22.4904 40.4184 23.5296 40.6848 24.4907 41.2087L25.7876 41.9238C26.7835 42.4709 27.8227 42.552 28.891 42.1641C29.9563 41.7704 30.7061 41.0408 31.1142 39.9871L31.6469 38.6091C32.443 36.5538 34.1394 35.1295 36.299 34.7039L37.7522 34.4144C38.8639 34.1944 39.7121 33.5836 40.2823 32.5993C40.8468 31.6238 40.9511 30.5845 40.5834 29.5076L40.1058 28.1094C39.4023 26.025 39.7844 23.8481 41.1595 22.1314L42.0888 20.9735C42.7951 20.0876 43.0557 19.0773 42.8501 17.957L42.8559 17.9599ZM21.4685 33.9657C14.4281 33.9657 8.69911 28.2396 8.69911 21.2022C8.69911 14.1647 14.4281 8.4386 21.4685 8.4386C28.5088 8.4386 34.232 14.1647 34.232 21.2022C34.232 28.2396 28.5059 33.9657 21.4685 33.9657Z" fill="#08B1F4"/>
<path d="M30.0924 17.6241L24.4155 17.6386L22.6699 12.2309C22.5859 11.9704 22.4209 11.7475 22.2096 11.597C21.9983 11.4435 21.7406 11.3567 21.4656 11.3509C20.9156 11.3509 20.4292 11.707 20.2584 12.2309L18.5099 17.6415L12.8301 17.627H12.8273C12.2772 17.627 11.7909 17.9802 11.623 18.5013C11.4522 19.0252 11.6403 19.5955 12.0833 19.9198L16.6861 23.2518L14.9232 28.6479C14.7524 29.1689 14.9376 29.7421 15.3834 30.0663C15.8264 30.3877 16.4314 30.3877 16.8772 30.0635L21.4656 26.7199L26.054 30.0635C26.274 30.2285 26.5403 30.3037 26.8009 30.3037C27.0614 30.3037 27.3249 30.2227 27.5449 30.0635C27.9907 29.7421 28.176 29.1689 28.0052 28.645L26.2335 23.2518L30.8364 19.9198C31.2822 19.5955 31.4674 19.0252 31.2966 18.5013C31.1258 17.9773 30.6424 17.627 30.0924 17.627V17.6241Z" fill="#08B1F4"/>
</svg>
