<svg width="53" height="54" viewBox="0 0 53 54" fill="none" xmlns="http://www.w3.org/2000/svg">
<path d="M51.7026 27.0685H45.6928C44.9771 27.0685 44.3954 27.6502 44.3954 28.3659C44.3954 29.0816 44.9771 29.6633 45.6928 29.6633H51.7026C52.4183 29.6633 53 29.0816 53 28.3659C53 27.6502 52.4183 27.0685 51.7026 27.0685Z" fill="#08B1F4"/>
<path d="M43.61 20.3216C43.8459 20.3269 44.0764 20.268 44.2802 20.15L49.4831 17.1451C50.1077 16.7806 50.3195 15.9764 49.9549 15.3518C49.5903 14.7273 48.7862 14.5155 48.1616 14.88L42.9586 17.9037C42.3367 18.2602 42.1223 19.0537 42.4788 19.6756C42.712 20.0803 43.1436 20.3296 43.6127 20.3269V20.3216H43.61Z" fill="#08B1F4"/>
<path d="M41.3771 5.39893C40.7901 5.01293 40.002 5.16036 39.5999 5.73668L36.209 10.7038C35.7694 11.272 35.8739 12.0869 36.4422 12.5239C37.0105 12.9635 37.8254 12.8589 38.2623 12.2906C38.2971 12.2478 38.3266 12.2022 38.3534 12.1539L41.7202 7.17614C42.1062 6.58909 41.9534 5.80101 41.3771 5.39893Z" fill="#08B1F4"/>
<path d="M15.7242 12.7195C16.4399 12.7195 17.0242 12.1405 17.0242 11.4248C17.0242 11.1621 16.9465 10.9048 16.7964 10.6877L13.4055 5.72058C13.0248 5.11209 12.226 4.92714 11.6176 5.30778C11.0091 5.68841 10.8241 6.48722 11.2047 7.09571C11.2235 7.12519 11.2423 7.152 11.261 7.1788L14.6466 12.1566C14.8905 12.5104 15.2953 12.7222 15.7242 12.7195Z" fill="#08B1F4"/>
<path d="M9.98776 17.9037L4.77675 14.88C4.14414 14.5449 3.35874 14.7835 3.02098 15.4161C2.702 16.0166 2.90036 16.7644 3.47936 17.1263L8.68232 20.1312C9.29081 20.5118 10.0896 20.3269 10.4703 19.7211C10.8509 19.1126 10.6659 18.3138 10.0601 17.9331C10.0333 17.9171 10.0065 17.901 9.97971 17.8876L9.98507 17.9063L9.98776 17.9037Z" fill="#08B1F4"/>
<path d="M49.4616 39.3374L44.2801 36.3325C43.6555 35.968 42.8541 36.177 42.4895 36.8016C42.1249 37.4262 42.334 38.2277 42.9586 38.5922L48.1616 41.5971C48.7942 41.9322 49.5796 41.6936 49.9173 41.061C50.2363 40.4606 50.038 39.7127 49.459 39.3508V39.3401L49.4616 39.3374Z" fill="#08B1F4"/>
<path d="M8.69039 36.3325L3.48742 39.3374C2.85481 39.6725 2.61356 40.4606 2.95131 41.0932C3.28906 41.7258 4.07446 41.967 4.70708 41.6293C4.73388 41.6159 4.76069 41.5998 4.78749 41.5837L9.99046 38.5895C10.5989 38.2089 10.7812 37.4074 10.4006 36.8016C10.0387 36.2253 9.29351 36.0242 8.69039 36.3432V36.3325Z" fill="#08B1F4"/>
<path d="M8.60727 28.3659C8.60727 27.6502 8.02559 27.0685 7.30988 27.0685H1.29739C0.581681 27.0685 0 27.6502 0 28.3659C0 29.0816 0.581681 29.6633 1.29739 29.6633H7.3072C8.02291 29.6633 8.60459 29.0816 8.60459 28.3659H8.60727Z" fill="#08B1F4"/>
<path d="M26.4517 9.26426C27.1675 9.26426 27.7491 8.68257 27.7491 7.96687V1.95437C27.7491 1.23866 27.1675 0.656982 26.4517 0.656982C25.736 0.656982 25.1544 1.23866 25.1544 1.95437V7.96418C25.1544 8.67989 25.736 9.26157 26.4517 9.26157V9.26426Z" fill="#08B1F4"/>
<path d="M31.6145 44.0713H21.289C20.5733 44.0713 19.9916 44.653 19.9916 45.3714C19.9916 46.0871 20.5733 46.6661 21.289 46.6687H31.6145C32.3302 46.6687 32.9119 46.0897 32.9145 45.3714C32.9145 44.6556 32.3355 44.074 31.6172 44.0713H31.6145Z" fill="#08B1F4"/>
<path d="M23.7738 51.8128V52.5231C23.7738 53.3353 24.4306 53.9947 25.2428 54.0001H27.3417C28.1512 53.9974 28.8079 53.3407 28.8106 52.5311V51.8449C30.4994 51.7511 31.8236 50.3599 31.8343 48.6685H21.0424C21.0504 50.2473 22.2111 51.5849 23.7738 51.8154V51.8128Z" fill="#08B1F4"/>
<path d="M26.4517 14.6334C19.2437 14.6334 13.4135 20.6325 13.4135 28.0228C13.4135 29.7437 13.7352 31.4486 14.3678 33.0489C14.4455 33.2472 14.5286 33.4429 14.6171 33.6413C15.1827 34.8984 15.9386 36.0618 16.858 37.0911L20.1712 42.1815H32.7484L36.0616 37.0911C36.981 36.0618 37.7369 34.8984 38.3025 33.6413C38.3883 33.4483 38.4714 33.2499 38.5518 33.0489C39.1844 31.4486 39.5087 29.7437 39.5061 28.0228C39.5061 20.6272 33.6625 14.6334 26.4544 14.6334H26.4517ZM25.8593 19.563C24.4869 19.6434 23.1547 20.0508 21.9725 20.7478C19.4903 22.2248 18.1983 24.8973 18.1313 28.6125C18.1179 29.3202 17.5416 29.8858 16.8339 29.8858C16.1182 29.8724 15.5472 29.28 15.5606 28.5643C15.6625 22.6376 18.4583 19.7855 20.7877 18.4479C22.3451 17.5579 24.0929 17.0566 25.8862 16.9843C26.6019 16.9843 27.1835 17.566 27.1835 18.2817C27.1835 18.9974 26.6019 19.5791 25.8862 19.5791L25.862 19.5603L25.8593 19.563Z" fill="#08B1F4"/>
</svg>
