<svg width="60" height="54" viewBox="0 0 60 54" fill="none" xmlns="http://www.w3.org/2000/svg">
<path fill-rule="evenodd" clip-rule="evenodd" d="M30 54H20.6252C17.8055 54 15.5194 51.7301 15.5194 48.9304C15.5194 48.7016 15.5352 48.4727 15.5636 48.2533L16.754 39.4842C17.4076 32.7938 23.0944 27.5643 30.0032 27.5643C36.9119 27.5643 42.5987 32.7938 43.2586 39.4842L44.449 48.2533C44.4774 48.4727 44.4932 48.7016 44.4932 48.9304C44.4932 51.7301 42.2008 54 39.3874 54H30.0063H30ZM23.9343 26.0563C21.5219 23.6422 18.1844 22.1436 14.4901 22.1436C7.57499 22.1436 1.89454 27.3731 1.23461 34.0635L0.044206 42.8326C0.0157879 43.052 0 43.2809 0 43.516C0 46.3157 2.28608 48.5856 5.10578 48.5856H12.8102C12.8197 48.3504 12.8387 48.1216 12.8702 47.8927L14.0512 39.1613C14.6637 33.1637 18.598 28.2164 23.9343 26.0532V26.0563ZM14.4901 0C9.18219 0 4.88475 4.27009 4.88475 9.53716C4.88475 14.8042 9.18535 19.0743 14.4901 19.0743C15.7941 19.0743 17.035 18.8141 18.1623 18.3438C17.856 17.2716 17.6855 16.1273 17.6855 14.9484C17.6855 10.8163 19.7474 7.16071 22.9144 4.94728C21.282 1.99396 18.1149 0 14.4901 0ZM36.0657 26.0563C38.4781 23.6422 41.8251 22.1436 45.5163 22.1436C52.425 22.1436 58.1055 27.3731 58.7654 34.0635L59.9558 42.8326C59.9842 43.052 60 43.2809 60 43.516C60 46.3157 57.7139 48.5856 54.8942 48.5856H47.1898C47.1803 48.3504 47.1614 48.1216 47.1298 47.8927L45.9488 39.1613C45.3363 33.1637 41.402 28.2164 36.0657 26.0532V26.0563ZM45.5163 0C50.8241 0 55.1216 4.27009 55.1216 9.53716C55.1216 14.8042 50.821 19.0743 45.5163 19.0743C44.2122 19.0743 42.965 18.8141 41.8345 18.3438C42.1503 17.2716 42.3176 16.1273 42.3176 14.9484C42.3176 10.8163 40.2495 7.16071 37.0887 4.94728C38.7212 1.99396 41.8788 0 45.5131 0H45.5163ZM30 5.41129C35.3079 5.41129 39.6053 9.68138 39.6053 14.9484C39.6053 20.2155 35.3047 24.4856 30 24.4856C24.6953 24.4856 20.3947 20.2155 20.3947 14.9484C20.3947 9.68138 24.6953 5.41129 30 5.41129Z" fill="#08B1F4"/>
</svg>
