<svg width="55" height="55" viewBox="0 0 55 55" fill="none" xmlns="http://www.w3.org/2000/svg">
<path d="M29.5539 21.2774C28.891 21.0603 28.1962 20.9503 27.4985 20.9474C24.8497 20.9474 22.4614 22.5425 21.4482 24.9915C20.4379 27.4377 20.9966 30.2545 22.8667 32.1274C24.7397 33.9975 27.5564 34.5592 30.0026 33.5459C32.4517 32.5327 34.0468 30.1444 34.0468 27.4956C34.0468 26.798 33.9339 26.1032 33.7168 25.4403L29.58 29.5771C29.027 30.13 28.2773 30.4426 27.4985 30.4426C26.7198 30.4426 25.9672 30.1329 25.4142 29.5799C24.8613 29.027 24.5515 28.2772 24.5515 27.4956C24.5515 26.714 24.8642 25.9671 25.4171 25.4142L29.5539 21.2774Z" fill="#08B1F4"/>
<path d="M1.3056 28.807H4.6463C4.96763 34.4144 7.34144 39.7121 11.3132 43.6839C15.285 47.6557 20.5798 50.0295 26.1901 50.3508V53.6915C26.1901 54.4123 26.7748 55 27.4986 55C28.2223 55 28.807 54.4123 28.807 53.6915V50.3508C34.4144 50.0295 39.7121 47.6557 43.6839 43.6839C47.6557 39.7121 50.0295 34.4173 50.3508 28.807H53.6915C54.4123 28.807 55 28.2223 55 27.4986C55 26.7748 54.4123 26.1901 53.6915 26.1901H50.374C50.18 22.612 49.1407 19.1352 47.3401 16.0377H43.1252L41.4346 17.7283C43.1917 20.2237 44.2426 23.1446 44.4742 26.1901H41.9064C41.8833 26.1901 41.8659 26.2016 41.8427 26.2016C41.6372 23.8481 40.8469 21.5843 39.55 19.6129L35.7113 23.4515C36.3424 24.705 36.6725 26.0945 36.6667 27.4986C36.6667 29.9303 35.7027 32.2635 33.9831 33.9802C32.2635 35.6998 29.9303 36.6638 27.5014 36.6638C25.0726 36.6638 22.7365 35.6998 21.0198 33.9802C19.3002 32.2606 18.3362 29.9274 18.3362 27.4986C18.3362 25.0697 19.3002 22.7336 21.0198 21.0169C22.7394 19.3002 25.0726 18.3333 27.5014 18.3333C28.9055 18.3275 30.2921 18.6576 31.5485 19.2886L35.3871 15.45C33.4157 14.1502 31.1519 13.3628 28.7984 13.1573C28.7984 13.1341 28.8099 13.1167 28.8099 13.0936V10.5258C31.8554 10.7574 34.7763 11.8083 37.2717 13.5655L38.9623 11.8748V7.65988C35.8648 5.85636 32.388 4.81999 28.8099 4.62603V1.30849C28.8099 0.587662 28.2252 0 27.5014 0C26.7777 0 26.193 0.587662 26.193 1.30849V4.64919C20.5856 4.97052 15.2879 7.34433 11.3161 11.3161C7.34433 15.2879 4.97052 20.5827 4.64919 26.193H1.30849C0.587662 26.193 0 26.7777 0 27.5014C0 28.2252 0.587662 28.8099 1.30849 28.8099L1.3056 28.807ZM41.8398 28.7955C41.863 28.7955 41.8804 28.807 41.9064 28.807H44.4597C44.1442 32.8541 42.3957 36.6522 39.5268 39.5239C36.6551 42.3928 32.857 44.1442 28.8099 44.4568V41.9064C28.8099 41.8833 28.7984 41.8659 28.7984 41.8398C32.1564 41.5359 35.2974 40.0624 37.6799 37.677C40.0653 35.2945 41.5388 32.1506 41.8427 28.7955H41.8398ZM26.2016 41.8398C26.2016 41.863 26.1901 41.8804 26.1901 41.9064V44.4597C22.143 44.1442 18.3449 42.3928 15.4732 39.5239C12.6043 36.6522 10.8529 32.8541 10.5403 28.807H13.0907C13.1138 28.807 13.1312 28.7955 13.1573 28.7955C13.4612 32.1535 14.9347 35.2945 17.3201 37.677C19.7026 40.0624 22.8465 41.5359 26.2016 41.8398ZM26.1901 10.5403V13.0907C26.1901 13.1138 26.2016 13.1312 26.2016 13.1573C22.8436 13.4612 19.7026 14.9347 17.3201 17.3201C14.9347 19.7026 13.4612 22.8465 13.1573 26.2016C13.1341 26.2016 13.1167 26.1901 13.0907 26.1901H10.5403C10.8558 22.143 12.6043 18.3449 15.4732 15.4732C18.3449 12.6043 22.143 10.8529 26.1901 10.5403Z" fill="#08B1F4"/>
<path d="M50.9124 14.402C51.448 14.402 51.9285 14.0749 52.1283 13.577L54.2821 8.1925C54.4442 7.79011 54.395 7.33272 54.1518 6.97375C53.9086 6.61189 53.5005 6.39767 53.0662 6.39767H49.1437C48.7963 6.39767 48.4605 6.53662 48.2144 6.78269C48.4605 6.53662 48.5994 6.20371 48.5994 5.85343V1.93086C48.5994 1.49662 48.3823 1.08844 48.0233 0.845273C47.6644 0.602102 47.207 0.552889 46.8017 0.715003L41.4201 2.8688C40.9222 3.06855 40.5951 3.5491 40.5951 4.08465V12.5522L26.5751 26.5721C26.3232 26.8182 26.1843 27.1511 26.1814 27.5014C26.1814 27.8488 26.3204 28.1875 26.5664 28.4307C26.8125 28.6796 27.1483 28.8157 27.4957 28.8157C27.8431 28.8157 28.1789 28.6738 28.4249 28.422L42.4449 14.402H50.9124Z" fill="#08B1F4"/>
</svg>
